<?xml version="1.0" encoding="UTF-8"?>
<svg width="356px" height="723px" viewBox="0 0 356 723" version="1.1" xmlns="http://www.w3.org/2000/svg" xmlns:xlink="http://www.w3.org/1999/xlink">
    <!-- Generator: Sketch 56.2 (81672) - https://sketch.com -->
    <title>Group 14</title>
    <desc>Created with Sketch.</desc>
    <defs>
        <linearGradient x1="12.4929888%" y1="13.369391%" x2="79.2568109%" y2="74.9629407%" id="linearGradient-1">
            <stop stop-color="#FFFFFF" offset="0%"></stop>
            <stop stop-color="#FFFFFF" stop-opacity="0.0727163462" offset="100%"></stop>
        </linearGradient>
    </defs>
    <g id="Page_New" stroke="none" stroke-width="1" fill="none" fill-rule="evenodd">
        <g id="home-" transform="translate(0.000000, -2853.000000)">
            <g id="Group-14" transform="translate(-367.000000, 2791.000000)">
                <path d="M115.057823,119.811161 L589.458133,117.741961 C684.163972,204.122158 708.408257,299.810638 662.190986,404.807402 C592.865079,562.302547 485.886941,426.938405 416.643608,586.964912 C370.481386,693.649251 273.93053,709.82337 126.99104,635.487269 L115.057823,119.811161 Z" id="wave" fill="#ed3237" transform="translate(399.992498, 399.509222) rotate(-40.000000) translate(-399.992498, -399.509222) "></path>
                <g id="Group-8-Copy-2" opacity="0.302383" transform="translate(372.000000, 434.000000)" stroke="url(#linearGradient-1)">
                    <circle id="Oval" cx="175" cy="175" r="175"></circle>
                    <circle id="Oval" cx="175" cy="175" r="166.25"></circle>
                    <circle id="Oval" cx="175" cy="175" r="157.5"></circle>
                    <circle id="Oval" cx="175" cy="175" r="148.75"></circle>
                    <circle id="Oval" cx="175" cy="175" r="140"></circle>
                    <circle id="Oval" cx="175" cy="175" r="131.25"></circle>
                    <circle id="Oval" cx="175" cy="175" r="122.5"></circle>
                    <circle id="Oval" cx="175" cy="175" r="113.75"></circle>
                    <circle id="Oval" cx="175" cy="175" r="105"></circle>
                    <circle id="Oval" cx="175" cy="175" r="96.25"></circle>
                    <circle id="Oval" cx="175" cy="175" r="87.5"></circle>
                </g>
                <g id="Group-8-Copy-5" opacity="0.302383" transform="translate(323.000000, 133.000000)" stroke="url(#linearGradient-1)">
                    <circle id="Oval" cx="175" cy="175" r="175"></circle>
                    <circle id="Oval" cx="175" cy="175" r="166.25"></circle>
                    <circle id="Oval" cx="175" cy="175" r="157.5"></circle>
                    <circle id="Oval" cx="175" cy="175" r="148.75"></circle>
                    <circle id="Oval" cx="175" cy="175" r="140"></circle>
                    <circle id="Oval" cx="175" cy="175" r="131.25"></circle>
                    <circle id="Oval" cx="175" cy="175" r="122.5"></circle>
                    <circle id="Oval" cx="175" cy="175" r="113.75"></circle>
                    <circle id="Oval" cx="175" cy="175" r="105"></circle>
                    <circle id="Oval" cx="175" cy="175" r="96.25"></circle>
                    <circle id="Oval" cx="175" cy="175" r="87.5"></circle>
                </g>
            </g>
        </g>
    </g>
</svg>